<?xml version="1.0" encoding="UTF-8" standalone="no"?>
<!DOCTYPE svg PUBLIC "-//W3C//DTD SVG 1.1//EN"
 "http://www.w3.org/Graphics/SVG/1.1/DTD/svg11.dtd">
<!-- Generated by graphviz version 2.50.0 (20211204.2007)
 -->
<!-- Title: yard Pages: 1 -->
<svg width="1059pt" height="307pt"
 viewBox="0.00 0.00 1059.00 307.00" xmlns="http://www.w3.org/2000/svg" xmlns:xlink="http://www.w3.org/1999/xlink">
<g id="graph0" class="graph" transform="scale(1 1) rotate(0) translate(4 303)">
<title>yard</title>
<polygon fill="white" stroke="transparent" points="-4,4 -4,-303 1055,-303 1055,4 -4,4"/>
<g id="clust4" class="cluster">
<title>cluster_</title>
<polygon fill="none" stroke="black" points="8,-8 8,-290.5 693,-290.5 693,-8 8,-8"/>
</g>
<!-- SearchEngines -->
<g id="node1" class="node">
<title>SearchEngines</title>
<polygon fill="none" stroke="black" points="387,-16.5 387,-191.5 685,-191.5 685,-16.5 387,-16.5"/>
<text text-anchor="middle" x="536" y="-176.3" font-family="Times,serif" font-size="14.00">module SearchEngines</text>
<polyline fill="none" stroke="black" points="387,-168.5 685,-168.5 "/>
<text text-anchor="middle" x="536" y="-153.3" font-family="Times,serif" font-size="14.00"> </text>
<polyline fill="none" stroke="black" points="387,-145.5 685,-145.5 "/>
<text text-anchor="start" x="395" y="-129.8" font-family="Times,serif" font-size="14.00">+ [] : Array&lt;Symbol, Proc&gt;</text>
<text text-anchor="start" x="395" y="-114.8" font-family="Times,serif" font-size="14.00">+ add</text>
<text text-anchor="start" x="395" y="-99.8" font-family="Times,serif" font-size="14.00">+ build_query</text>
<text text-anchor="start" x="395" y="-84.8" font-family="Times,serif" font-size="14.00">+ each</text>
<text text-anchor="start" x="395" y="-69.8" font-family="Times,serif" font-size="14.00">+ engines : Hash&lt;Symbol, Array&lt;Symbol, Proc&gt;&gt;</text>
<text text-anchor="start" x="395" y="-54.8" font-family="Times,serif" font-size="14.00">+ Languages : Hash&lt;String, String&gt;</text>
<text text-anchor="start" x="395" y="-39.8" font-family="Times,serif" font-size="14.00">+ load_engines</text>
<text text-anchor="start" x="395" y="-24.8" font-family="Times,serif" font-size="14.00">+ search_with : Array&lt;Result&gt;</text>
</g>
<!-- SearchEngines_SearchEngineBuilder -->
<g id="node2" class="node">
<title>SearchEngines_SearchEngineBuilder</title>
<polygon fill="none" stroke="black" points="205.5,-39 205.5,-169 368.5,-169 368.5,-39 205.5,-39"/>
<text text-anchor="middle" x="287" y="-153.8" font-family="Times,serif" font-size="14.00">class SearchEngineBuilder</text>
<polyline fill="none" stroke="black" points="205.5,-146 368.5,-146 "/>
<text text-anchor="middle" x="287" y="-130.8" font-family="Times,serif" font-size="14.00"> </text>
<polyline fill="none" stroke="black" points="205.5,-123 368.5,-123 "/>
<text text-anchor="start" x="213.5" y="-107.3" font-family="Times,serif" font-size="14.00">+ endpoint</text>
<text text-anchor="start" x="213.5" y="-92.3" font-family="Times,serif" font-size="14.00">+ query : :query</text>
<text text-anchor="start" x="213.5" y="-77.3" font-family="Times,serif" font-size="14.00">+ result</text>
<text text-anchor="start" x="213.5" y="-62.3" font-family="Times,serif" font-size="14.00">+ results</text>
<text text-anchor="start" x="213.5" y="-47.3" font-family="Times,serif" font-size="14.00">+ #search : Array&lt;Result&gt;</text>
</g>
<!-- HTTParty -->
<g id="node3" class="node">
<title>HTTParty</title>
<polygon fill="none" stroke="black" points="251.5,-245 251.5,-282 322.5,-282 322.5,-245 251.5,-245"/>
<text text-anchor="middle" x="287" y="-259.8" font-family="Times,serif" font-size="14.00">HTTParty</text>
</g>
<!-- SearchEngines_SearchEngineBuilder&#45;&gt;HTTParty -->
<g id="edge1" class="edge">
<title>SearchEngines_SearchEngineBuilder&#45;&gt;HTTParty</title>
<path fill="none" stroke="black" stroke-dasharray="1,5" d="M287,-169.06C287,-191.88 287,-216.4 287,-234.6"/>
<polygon fill="black" stroke="black" points="283.5,-234.78 287,-244.78 290.5,-234.78 283.5,-234.78"/>
</g>
<!-- SearchEngines_ResultMapper -->
<g id="node4" class="node">
<title>SearchEngines_ResultMapper</title>
<polygon fill="none" stroke="black" points="16.5,-39 16.5,-169 187.5,-169 187.5,-39 16.5,-39"/>
<text text-anchor="middle" x="102" y="-153.8" font-family="Times,serif" font-size="14.00">class ResultMapper</text>
<polyline fill="none" stroke="black" points="16.5,-146 187.5,-146 "/>
<text text-anchor="middle" x="102" y="-130.8" font-family="Times,serif" font-size="14.00"> </text>
<polyline fill="none" stroke="black" points="16.5,-123 187.5,-123 "/>
<text text-anchor="start" x="24.5" y="-107.3" font-family="Times,serif" font-size="14.00">+ #initialize : ResultMapper</text>
<text text-anchor="start" x="24.5" y="-92.3" font-family="Times,serif" font-size="14.00">+ #map : Result</text>
<text text-anchor="start" x="24.5" y="-77.3" font-family="Times,serif" font-size="14.00">+ #snippet</text>
<text text-anchor="start" x="24.5" y="-62.3" font-family="Times,serif" font-size="14.00">+ #title</text>
<text text-anchor="start" x="24.5" y="-47.3" font-family="Times,serif" font-size="14.00">+ #url</text>
</g>
<!-- Root -->
<g id="node5" class="node">
<title>Root</title>
<polygon fill="none" stroke="black" points="703,-69 703,-139 767,-139 767,-69 703,-69"/>
<text text-anchor="middle" x="735" y="-123.8" font-family="Times,serif" font-size="14.00">root root</text>
<polyline fill="none" stroke="black" points="703,-116 767,-116 "/>
<text text-anchor="middle" x="735" y="-100.8" font-family="Times,serif" font-size="14.00"> </text>
<polyline fill="none" stroke="black" points="703,-93 767,-93 "/>
<text text-anchor="middle" x="735" y="-77.3" font-family="Times,serif" font-size="14.00"> </text>
</g>
<!-- Struct -->
<g id="node6" class="node">
<title>Struct</title>
<polygon fill="none" stroke="black" points="859.5,-228.5 859.5,-298.5 978.5,-298.5 978.5,-228.5 859.5,-228.5"/>
<text text-anchor="middle" x="919" y="-283.3" font-family="Times,serif" font-size="14.00">class Struct</text>
<polyline fill="none" stroke="black" points="859.5,-275.5 978.5,-275.5 "/>
<text text-anchor="middle" x="919" y="-260.3" font-family="Times,serif" font-size="14.00"> </text>
<polyline fill="none" stroke="black" points="859.5,-252.5 978.5,-252.5 "/>
<text text-anchor="start" x="867.5" y="-236.8" font-family="Times,serif" font-size="14.00">+ #to_json : String</text>
</g>
<!-- QueryBuilder -->
<g id="node7" class="node">
<title>QueryBuilder</title>
<polygon fill="none" stroke="black" points="785,-39 785,-169 911,-169 911,-39 785,-39"/>
<text text-anchor="middle" x="848" y="-153.8" font-family="Times,serif" font-size="14.00">class QueryBuilder</text>
<polyline fill="none" stroke="black" points="785,-146 911,-146 "/>
<text text-anchor="start" x="793" y="-130.8" font-family="Times,serif" font-size="14.00">+ #count [RW]</text>
<text text-anchor="start" x="793" y="-115.8" font-family="Times,serif" font-size="14.00">+ #market [RW]</text>
<text text-anchor="start" x="793" y="-100.8" font-family="Times,serif" font-size="14.00">+ #offset [RW]</text>
<text text-anchor="start" x="793" y="-85.8" font-family="Times,serif" font-size="14.00">+ #query [RW]</text>
<text text-anchor="start" x="793" y="-70.8" font-family="Times,serif" font-size="14.00">+ #safesearch [RW]</text>
<polyline fill="none" stroke="black" points="785,-63 911,-63 "/>
<text text-anchor="middle" x="848" y="-47.3" font-family="Times,serif" font-size="14.00"> </text>
</g>
<!-- QueryBuilder&#45;&gt;Struct -->
<g id="edge2" class="edge">
<title>QueryBuilder&#45;&gt;Struct</title>
<path fill="none" stroke="black" d="M876.88,-169.06C884.45,-185.85 892.43,-203.56 899.39,-218.99"/>
<polygon fill="black" stroke="black" points="896.27,-220.6 903.57,-228.28 902.65,-217.72 896.27,-220.6"/>
</g>
<!-- Result -->
<g id="node8" class="node">
<title>Result</title>
<polygon fill="none" stroke="black" points="929,-54 929,-154 1051,-154 1051,-54 929,-54"/>
<text text-anchor="middle" x="990" y="-138.8" font-family="Times,serif" font-size="14.00">class Result</text>
<polyline fill="none" stroke="black" points="929,-131 1051,-131 "/>
<text text-anchor="start" x="937" y="-115.8" font-family="Times,serif" font-size="14.00">+ #snippet [R]</text>
<text text-anchor="start" x="937" y="-100.8" font-family="Times,serif" font-size="14.00">+ #title [R]</text>
<text text-anchor="start" x="937" y="-85.8" font-family="Times,serif" font-size="14.00">+ #url [R]</text>
<polyline fill="none" stroke="black" points="929,-78 1051,-78 "/>
<text text-anchor="start" x="937" y="-62.3" font-family="Times,serif" font-size="14.00">+ #to_html : String</text>
</g>
<!-- Result&#45;&gt;Struct -->
<g id="edge3" class="edge">
<title>Result&#45;&gt;Struct</title>
<path fill="none" stroke="black" d="M967.73,-154.4C958.39,-175.12 947.63,-199 938.59,-219.03"/>
<polygon fill="black" stroke="black" points="935.37,-217.68 934.45,-228.24 941.75,-220.56 935.37,-217.68"/>
</g>
</g>
</svg>
